{"glyphs":{":":{"x_min":0,"x_max":296,"ha":296,"o":"m 148 -15 q 123 -15 104 3 q 86 21 86 46 q 86 71 104 90 q 123 108 148 108 q 173 108 191 90 q 209 72 209 46 q 209 20 191 2 q 174 -15 148 -15 z m 148 330 q 123 330 104 349 q 86 367 86 392 q 86 417 104 435 q 123 453 148 453 q 173 453 191 435 q 209 417 209 392 q 209 366 191 348 q 174 330 148 330 z"},"$":{"x_min":0,"x_max":546,"ha":546,"o":"m 248 426 l 248 659 q 191 655 158 623 q 124 592 124 543 q 124 498 155 469 q 186 439 248 426 z m 248 -10 l 241 -10 q 157 -10 100 37 q 42 84 42 150 q 42 189 62 213 q 82 237 115 237 q 140 237 157 219 q 175 202 175 176 q 175 144 147 123 q 120 102 120 96 q 120 75 158 54 q 196 33 248 33 l 248 321 q 151 343 106 391 q 60 438 60 518 q 60 595 111 644 q 162 693 248 699 l 248 759 l 297 759 l 297 700 q 377 694 427 655 q 477 615 477 559 q 477 526 459 507 q 442 488 411 488 q 384 488 368 504 q 352 521 352 547 q 352 574 374 590 q 396 605 396 611 q 396 626 366 642 q 337 658 297 659 l 297 410 q 409 381 457 333 q 505 285 505 203 q 505 115 449 58 q 393 0 297 -10 l 297 -138 l 248 -138 z m 297 35 q 359 42 395 79 q 431 116 431 173 q 431 228 404 255 q 376 283 297 305 z"},"?":{"x_min":0,"x_max":440,"ha":440,"o":"m 192 -13 q 167 -13 149 5 q 131 23 131 49 q 131 75 149 93 q 167 111 192 111 q 217 111 236 93 q 254 75 254 49 q 254 23 236 5 q 218 -13 192 -13 z m 174 199 l 174 268 q 174 335 232 409 l 233 410 l 237 416 q 303 502 303 571 q 303 634 274 666 q 246 697 188 697 q 152 697 125 680 q 98 664 98 644 q 98 639 121 617 q 143 596 143 569 q 143 543 127 527 q 110 511 84 511 q 55 511 38 532 q 21 553 21 588 q 21 652 76 697 q 132 741 215 741 q 299 741 352 694 q 405 646 405 572 q 405 480 280 369 l 278 367 q 237 331 226 305 q 214 279 214 238 l 214 199 z"},"<":{"x_min":0,"x_max":833,"ha":833,"o":"m 704 566 l 704 491 l 231 298 l 704 106 l 704 31 l 129 267 l 129 330 z"},"'":{"x_min":0,"x_max":172,"ha":172,"o":"m 95 420 l 78 420 l 44 644 q 44 645 43 648 q 42 658 42 662 q 42 687 53 700 q 65 714 86 714 q 106 714 118 701 q 130 688 130 664 q 130 661 130 657 q 129 653 128 644 z"},"=":{"x_min":0,"x_max":833,"ha":833,"o":"m 124 235 l 709 235 l 709 167 l 124 167 z m 124 429 l 709 429 l 709 361 l 124 361 z"},"a":{"x_min":0,"x_max":523,"ha":523,"o":"m 344 249 q 232 234 182 204 q 131 173 131 120 q 131 80 151 59 q 170 39 210 39 q 272 39 308 77 q 344 115 344 183 z m 350 64 q 321 27 272 6 q 224 -16 171 -16 q 108 -16 71 17 q 33 50 33 106 q 33 178 106 221 q 179 265 344 292 l 344 340 q 344 395 320 415 q 296 436 237 436 q 197 436 172 426 q 147 415 147 400 q 147 397 159 380 q 171 363 171 344 q 171 321 157 307 q 143 294 119 294 q 91 294 76 309 q 60 324 60 351 q 60 406 114 443 q 168 479 253 479 q 350 479 393 444 q 436 410 436 331 l 436 99 q 436 76 445 65 q 455 53 473 53 q 483 53 497 60 q 511 67 516 67 q 521 67 524 62 q 528 58 528 51 q 528 31 499 10 q 470 -10 434 -10 q 400 -10 379 9 q 357 28 350 64 z"},"L":{"x_min":0,"x_max":660,"ha":660,"o":"m 34 0 l 34 47 l 86 47 q 118 47 128 57 q 139 67 139 95 l 139 627 q 139 655 128 665 q 118 675 86 675 l 34 675 l 34 722 l 353 722 l 353 675 l 300 675 q 269 675 259 665 q 248 655 248 627 l 248 95 q 248 64 262 55 q 275 45 333 45 q 411 45 453 54 q 496 62 519 82 q 544 104 563 152 q 582 201 595 277 l 634 277 l 619 0 z"},"3":{"x_min":0,"x_max":546,"ha":546,"o":"m 342 371 q 420 354 459 306 q 499 259 499 183 q 499 94 433 38 q 367 -18 260 -18 q 162 -18 102 28 q 42 74 42 147 q 42 188 62 212 q 83 237 116 237 q 143 237 159 220 q 175 203 175 175 q 175 160 170 148 q 166 137 156 126 q 149 119 134 109 q 119 100 119 91 q 119 68 155 48 q 191 27 240 27 q 316 27 353 66 q 390 105 390 187 q 390 273 360 311 q 330 348 262 348 q 250 348 229 345 q 209 343 201 343 q 188 343 180 349 q 173 356 173 367 q 173 380 181 388 q 190 395 206 395 q 208 395 226 393 q 244 391 260 391 q 321 391 349 426 q 378 461 378 537 q 378 598 347 629 q 317 661 259 661 q 214 661 183 644 q 152 626 152 604 q 152 598 173 579 q 194 559 194 531 q 194 505 178 490 q 162 475 135 475 q 106 475 90 495 q 73 515 73 549 q 73 618 129 663 q 186 707 276 707 q 367 707 422 660 q 476 614 476 536 q 476 474 444 434 q 412 394 342 371 z"},";":{"x_min":0,"x_max":296,"ha":296,"o":"m 148 330 q 122 330 104 348 q 86 367 86 392 q 86 417 104 435 q 123 453 148 453 q 173 453 191 435 q 209 417 209 392 q 209 366 191 348 q 174 330 148 330 z m 100 -188 l 78 -159 q 126 -124 151 -88 q 176 -53 176 -21 q 176 -18 174 -9 q 174 -7 174 -6 q 163 -10 157 -11 q 152 -12 148 -12 q 119 -12 103 4 q 87 20 87 47 q 87 73 105 91 q 123 109 148 109 q 184 109 207 81 q 229 53 229 8 q 229 -48 196 -98 q 163 -148 100 -188 z"},"J":{"x_min":0,"x_max":530,"ha":530,"o":"m 303 627 q 303 655 293 665 q 283 675 251 675 l 193 675 l 193 722 l 520 722 l 520 675 l 468 675 q 436 675 426 665 q 415 655 415 627 l 415 220 q 415 99 361 41 q 306 -18 193 -18 q 102 -18 48 31 q -6 80 -6 160 q -6 214 22 249 q 50 284 93 284 q 128 284 149 263 q 170 243 170 208 q 170 174 151 155 q 132 135 100 135 q 89 135 76 137 q 63 139 62 139 q 57 139 53 135 q 49 131 49 125 q 49 89 85 62 q 121 36 174 36 q 242 36 273 72 q 303 107 303 187 z"},"V":{"x_min":0,"x_max":706,"ha":706,"o":"m 374 -18 l 335 -18 l 82 631 q 70 661 59 668 q 47 675 10 675 l -12 675 l -12 722 l 295 722 l 295 675 l 258 675 q 222 675 210 669 q 198 663 198 648 q 198 641 200 632 q 202 623 206 613 l 383 161 l 540 565 q 546 582 550 596 q 553 611 553 622 q 553 649 536 662 q 518 675 481 675 l 453 675 l 453 722 l 714 722 l 714 675 l 707 675 q 668 675 647 658 q 625 641 606 590 z"},"\"":{"x_min":0,"x_max":335,"ha":335,"o":"m 257 420 l 240 420 l 206 644 q 206 647 205 651 q 205 655 205 662 q 205 687 216 700 q 227 714 248 714 q 269 714 280 701 q 292 688 292 664 q 292 656 292 652 q 292 648 291 644 z m 95 420 l 78 420 l 44 644 q 43 652 42 657 q 42 661 42 664 q 42 688 54 701 q 65 714 86 714 q 107 714 119 700 q 130 687 130 662 q 130 654 130 651 q 129 647 129 644 z"},"7":{"x_min":0,"x_max":546,"ha":546,"o":"m 113 455 l 72 460 l 100 704 q 140 697 188 694 q 236 691 300 691 q 352 691 403 693 q 455 695 508 699 l 508 666 q 417 472 379 358 q 341 244 341 168 q 341 154 342 123 q 343 92 343 76 q 343 29 326 5 q 309 -19 274 -19 q 247 -19 231 0 q 215 20 215 53 q 215 120 268 251 q 321 382 441 610 q 409 607 377 606 q 346 605 312 605 q 280 605 241 606 q 202 608 196 608 q 157 608 149 600 q 140 592 132 552 z"},"S":{"x_min":0,"x_max":603,"ha":603,"o":"m 125 57 l 83 -12 l 48 -12 l 43 278 l 84 278 q 106 155 168 91 q 229 27 326 27 q 406 27 451 65 q 495 103 495 170 q 495 201 484 225 q 472 250 451 265 q 423 285 332 308 q 303 315 287 320 q 144 358 97 404 q 50 450 50 535 q 50 628 108 683 q 166 739 263 739 q 318 739 365 721 q 413 704 450 669 l 489 729 l 526 729 l 537 469 l 498 469 q 470 581 411 637 q 352 693 263 693 q 197 693 161 661 q 125 630 125 572 q 125 483 306 438 q 323 435 333 432 q 417 411 452 395 q 486 379 511 357 q 541 330 556 290 q 572 250 572 203 q 572 98 507 40 q 442 -18 324 -18 q 266 -18 214 2 q 161 21 125 57 z"},"}":{"x_min":0,"x_max":500,"ha":500,"o":"m 86 740 l 91 740 q 198 740 239 704 q 279 668 279 571 l 279 470 q 279 392 307 362 q 335 333 414 326 l 414 295 q 335 289 307 259 q 279 229 279 151 l 279 50 q 279 -47 239 -83 q 198 -119 91 -119 l 86 -119 l 86 -93 q 153 -92 177 -67 q 201 -41 201 35 l 201 104 q 201 215 230 255 q 258 294 336 310 q 259 326 230 365 q 201 405 201 516 l 201 585 q 201 662 177 688 q 152 713 86 714 z"},"Z":{"x_min":0,"x_max":603,"ha":603,"o":"m 151 47 l 297 47 q 370 47 407 59 q 445 71 466 99 q 485 125 500 170 q 516 214 526 277 l 565 277 l 550 0 l 24 0 l 24 47 l 433 680 l 306 680 q 232 680 201 669 q 170 658 148 630 q 131 609 117 571 q 103 532 91 473 l 52 473 l 67 722 l 559 722 l 559 680 z"},"x":{"x_min":0,"x_max":526,"ha":526,"o":"m 8 0 l 8 42 q 36 44 54 52 q 73 61 93 84 l 219 226 l 80 393 q 68 409 54 415 q 40 421 19 421 l 14 421 l 14 463 l 245 463 l 245 425 q 210 424 199 421 q 188 417 188 409 q 188 404 191 399 q 194 393 203 382 l 275 294 l 344 370 q 350 377 354 385 q 357 393 357 399 q 357 413 343 419 q 329 425 298 425 l 298 463 l 498 463 l 498 421 q 471 420 454 413 q 436 405 414 381 l 302 257 l 430 91 l 431 89 q 469 41 517 41 l 517 0 l 274 0 l 274 42 q 308 43 321 47 q 334 52 334 61 q 334 65 331 71 q 329 76 319 89 l 246 188 l 164 100 q 157 92 154 85 q 150 78 150 72 q 150 55 163 48 q 176 42 214 42 l 214 0 z"},")":{"x_min":0,"x_max":356,"ha":356,"o":"m 48 -120 l 48 -94 q 133 -31 171 65 q 209 162 209 321 q 209 467 171 559 q 133 651 48 713 l 48 740 q 165 667 226 559 q 286 451 286 313 q 286 169 224 56 q 161 -58 48 -120 z"},"&":{"x_min":0,"x_max":809,"ha":809,"o":"m 316 453 q 371 478 400 514 q 429 550 429 592 q 429 644 409 668 q 389 693 347 693 q 310 693 289 670 q 269 647 269 605 q 269 575 281 537 q 292 500 316 453 z m 424 91 q 375 146 331 214 q 288 281 243 373 q 200 352 177 321 q 154 290 154 252 q 154 173 204 112 q 254 50 317 50 q 348 50 375 60 q 401 71 424 91 z m 728 172 l 769 162 q 750 69 710 27 q 669 -15 600 -15 q 561 -15 524 3 q 488 21 457 56 q 410 18 363 -1 q 315 -20 264 -20 q 171 -20 110 38 q 50 96 50 183 q 50 257 92 312 q 135 368 225 411 q 202 452 191 493 q 179 534 179 574 q 179 647 227 694 q 275 740 351 740 q 422 740 465 701 q 509 663 509 600 q 509 541 469 498 q 429 456 334 416 q 340 405 353 384 q 445 225 499 164 q 533 207 552 248 q 572 288 572 315 q 572 340 549 353 q 526 366 483 366 l 470 366 l 470 409 l 745 409 l 745 366 q 706 366 684 355 q 661 345 644 319 q 642 316 606 248 q 571 180 528 128 q 560 94 587 79 q 614 63 639 63 q 671 63 693 90 q 715 117 728 172 z"},"_":{"x_min":0,"x_max":500,"ha":500,"o":"m 0 -166 l 500 -166 l 500 -236 l 0 -236 z"},"v":{"x_min":0,"x_max":522,"ha":522,"o":"m 282 -16 l 251 -16 l 78 381 q 68 404 55 413 q 41 421 13 421 l 6 421 l 6 463 l 230 463 l 230 421 q 193 420 181 415 q 170 410 170 398 q 170 395 172 387 q 175 380 181 366 l 289 117 l 378 347 q 383 361 386 371 q 388 380 388 387 q 388 403 374 412 q 359 421 333 421 l 322 421 l 322 463 l 516 463 l 516 421 q 484 420 465 405 q 446 389 431 351 z"},"O":{"x_min":0,"x_max":778,"ha":778,"o":"m 175 361 q 175 192 228 110 q 280 28 389 28 q 497 28 550 111 q 603 194 603 361 q 603 531 551 612 q 498 694 389 694 q 281 694 228 612 q 175 530 175 361 z m 45 361 q 45 440 69 509 q 93 577 139 629 q 187 684 250 712 q 314 740 389 740 q 465 740 526 713 q 587 686 637 630 q 685 577 708 509 q 732 442 732 361 q 732 278 711 215 q 689 152 644 99 q 594 41 531 12 q 467 -17 389 -17 q 311 -17 248 11 q 185 40 134 99 q 88 152 67 216 q 45 280 45 361 z"},"(":{"x_min":0,"x_max":356,"ha":356,"o":"m 311 -120 q 198 -58 135 56 q 73 169 73 313 q 73 451 134 559 q 194 667 311 740 l 311 713 q 226 651 188 559 q 150 467 150 321 q 150 162 188 65 q 226 -31 311 -94 z"},"C":{"x_min":0,"x_max":694,"ha":694,"o":"m 612 253 l 659 247 q 643 122 568 52 q 493 -19 377 -19 q 320 -19 271 -2 q 222 15 182 48 q 114 104 79 183 q 45 261 45 361 q 45 437 67 502 q 88 568 131 622 q 178 681 237 709 q 296 738 371 738 q 422 738 467 721 q 512 705 551 672 l 589 734 l 627 734 l 640 443 l 601 441 q 579 564 523 629 q 467 694 384 694 q 279 694 227 611 q 175 528 175 361 q 175 191 227 111 q 280 30 390 30 q 476 30 533 87 q 590 144 612 253 z"},"W":{"x_min":0,"x_max":946,"ha":946,"o":"m 335 722 l 622 722 l 622 675 l 597 675 q 564 675 552 669 q 541 664 541 650 q 541 643 543 634 q 544 625 548 613 l 686 181 l 798 565 q 803 582 806 596 q 808 611 808 624 q 808 650 792 662 q 776 675 743 675 l 718 675 l 718 722 l 953 722 l 953 675 q 916 675 894 656 q 873 637 859 590 l 680 -18 l 639 -18 l 473 487 l 325 -18 l 284 -18 l 72 634 q 64 657 53 666 q 42 675 21 675 l -7 675 l -7 722 l 271 722 l 271 675 l 245 675 q 211 675 199 669 q 187 664 187 650 q 187 645 189 635 q 191 625 195 613 l 331 182 l 448 572 l 424 642 q 417 661 405 668 q 393 675 360 675 l 335 675 z"},"A":{"x_min":0,"x_max":706,"ha":706,"o":"m 444 286 l 325 576 l 211 286 z m 334 734 l 373 734 l 628 97 q 641 66 654 56 q 668 47 697 47 q 700 47 707 47 q 713 48 717 48 l 717 0 l 418 0 l 418 48 l 456 48 q 494 48 505 53 q 517 59 517 74 q 517 80 515 89 q 512 98 508 109 l 462 235 l 193 235 l 162 157 q 156 141 152 124 q 148 107 148 97 q 148 73 167 60 q 185 48 221 48 l 246 48 l 246 0 l -12 0 l -12 48 l -4 48 q 36 48 58 65 q 79 82 99 132 z"},"f":{"x_min":0,"x_max":343,"ha":343,"o":"m 31 0 l 31 43 l 74 44 q 95 46 101 52 q 107 59 107 81 l 107 422 l 25 422 l 25 463 l 107 463 l 107 484 q 107 611 154 675 q 201 739 293 739 q 355 739 393 711 q 430 684 430 639 q 430 613 415 597 q 400 581 376 581 q 354 581 339 596 q 323 612 323 634 q 323 646 331 661 q 339 676 339 680 q 339 689 329 694 q 319 699 301 699 q 247 699 222 649 q 198 598 198 482 l 198 463 l 305 463 l 305 422 l 198 422 l 198 81 q 198 59 205 51 q 212 44 231 44 l 292 44 l 292 0 z"},"Q":{"x_min":0,"x_max":778,"ha":778,"o":"m 237 97 q 235 107 235 116 q 234 125 234 134 q 234 196 272 233 q 311 270 374 270 q 437 270 482 227 q 527 184 545 105 q 575 137 590 204 q 604 271 604 378 q 604 533 549 613 q 494 694 388 694 q 276 694 225 610 q 174 527 174 343 q 174 255 189 194 q 205 133 237 97 z m 480 -5 q 461 -11 438 -14 q 416 -17 388 -17 q 325 -17 271 2 q 217 21 174 58 q 109 113 77 188 q 45 264 45 361 q 45 440 69 509 q 93 578 138 630 q 187 687 248 713 q 309 740 388 740 q 470 740 530 713 q 590 686 641 627 q 686 575 708 508 q 731 440 731 361 q 731 251 691 169 q 650 87 570 34 l 578 6 q 598 -60 615 -86 q 631 -113 653 -113 q 674 -113 684 -94 q 694 -75 698 -26 l 734 -26 q 734 -30 735 -35 q 735 -40 735 -48 q 735 -116 702 -153 q 669 -191 610 -191 q 546 -191 513 -144 q 481 -98 480 -5 z m 475 48 l 475 57 q 475 139 448 179 q 420 220 366 220 q 325 220 300 194 q 276 168 276 124 q 276 78 305 52 q 334 26 386 26 q 412 26 435 31 q 457 37 475 48 z"},"w":{"x_min":0,"x_max":762,"ha":762,"o":"m 222 463 l 222 421 l 202 419 q 184 417 177 412 q 169 407 169 398 q 169 393 173 382 q 174 380 175 378 l 271 133 l 359 366 l 355 381 q 349 403 334 412 q 319 421 289 421 l 282 421 l 282 463 l 502 463 l 502 421 l 471 419 q 456 418 449 413 q 442 408 442 398 q 442 394 444 386 q 446 379 451 366 l 541 135 l 615 347 q 616 349 617 352 q 625 375 625 387 q 625 403 612 412 q 599 421 576 421 l 570 421 l 570 463 l 751 463 l 751 421 q 721 420 701 403 q 681 387 668 351 l 536 -16 l 503 -16 l 384 304 l 266 -16 l 235 -16 l 79 381 q 70 403 56 412 q 42 420 15 421 l 15 463 z"},"-":{"x_min":0,"x_max":329,"ha":329,"o":"m 44 195 l 44 280 l 284 280 l 284 195 z"},"E":{"x_min":0,"x_max":713,"ha":713,"o":"m 34 0 l 34 47 l 86 47 q 118 47 128 57 q 139 67 139 95 l 139 627 q 139 655 128 665 q 118 675 86 675 l 34 675 l 34 722 l 619 722 l 632 467 l 589 467 q 580 529 562 574 q 543 619 519 640 q 495 660 453 668 q 410 677 333 677 q 275 677 262 667 q 248 657 248 627 l 248 398 l 262 398 q 340 398 373 428 q 406 459 413 536 l 455 536 l 455 218 l 413 218 q 406 295 374 325 q 341 355 262 355 l 248 355 l 248 95 q 248 64 263 54 q 277 44 341 44 q 411 44 454 50 q 498 56 525 70 q 558 86 580 135 q 602 183 619 274 l 657 274 l 642 0 z"},"s":{"x_min":0,"x_max":440,"ha":440,"o":"m 46 183 l 82 183 q 101 107 143 66 q 185 26 246 26 q 294 26 323 49 q 351 71 351 109 q 351 140 332 156 q 312 173 246 186 q 124 211 88 245 q 52 278 52 343 q 52 404 90 441 q 128 478 191 478 q 230 478 260 469 q 289 460 317 439 l 346 474 l 377 474 l 377 308 l 346 308 q 325 373 288 406 q 250 439 197 439 q 157 439 131 419 q 106 400 106 370 q 106 312 226 289 l 231 288 q 337 267 374 234 q 410 202 410 138 q 410 65 365 24 q 321 -18 243 -18 q 207 -18 175 -6 q 143 6 112 31 l 79 -15 l 46 -15 z"},">":{"x_min":0,"x_max":833,"ha":833,"o":"m 129 566 l 704 330 l 704 267 l 129 31 l 129 106 l 603 298 l 129 491 z"},"l":{"x_min":0,"x_max":301,"ha":301,"o":"m 28 0 l 28 42 l 76 44 q 96 45 103 52 q 110 59 110 81 l 110 650 q 110 674 99 682 q 88 690 55 690 q 51 690 42 689 q 32 689 26 689 l 26 728 l 201 740 l 201 81 q 201 59 208 52 q 214 45 235 44 l 279 42 l 279 0 z"},"8":{"x_min":0,"x_max":546,"ha":546,"o":"m 329 404 q 367 433 385 466 q 404 500 404 539 q 404 597 369 630 q 335 662 273 662 q 213 662 179 632 q 145 603 145 551 q 145 501 187 468 q 228 434 329 404 z m 230 326 q 176 304 149 265 q 122 225 122 168 q 122 101 161 64 q 200 27 272 27 q 345 27 387 65 q 430 104 430 168 q 430 222 397 253 q 363 284 230 326 z m 189 344 q 130 368 101 410 q 71 452 71 511 q 71 597 129 651 q 187 705 278 705 q 367 705 420 661 q 474 616 474 543 q 474 497 446 458 q 418 419 365 391 q 439 363 475 317 q 511 270 511 203 q 511 105 441 43 q 371 -18 257 -18 q 156 -18 98 33 q 39 83 39 170 q 39 231 78 276 q 117 321 189 344 z"},"\\":{"x_min":0,"x_max":278,"ha":278,"o":"m 242 -93 l -10 740 l 36 740 l 287 -93 z"},"e":{"x_min":0,"x_max":488,"ha":488,"o":"m 136 267 l 322 267 q 343 267 350 274 q 357 281 357 299 q 357 367 330 403 q 302 439 251 439 q 194 439 166 396 q 138 354 136 267 z m 135 224 q 135 220 134 214 q 134 207 134 204 q 134 127 170 82 q 206 37 267 37 q 319 37 359 64 q 398 91 426 145 l 461 125 q 428 55 375 19 q 322 -16 250 -16 q 154 -16 94 52 q 33 121 33 231 q 33 342 94 410 q 154 479 250 479 q 348 479 404 416 q 461 352 461 242 l 461 224 z"},"b":{"x_min":0,"x_max":560,"ha":560,"o":"m 419 227 q 419 329 390 376 q 361 424 299 424 q 236 424 208 377 q 179 331 179 227 q 179 123 209 76 q 238 29 304 29 q 364 29 391 76 q 419 124 419 227 z m 179 407 q 203 443 238 461 q 272 479 318 479 q 408 479 464 411 q 520 342 520 231 q 520 121 464 52 q 408 -17 320 -17 q 269 -17 229 3 q 188 22 151 67 l 105 -12 l 71 -12 q 80 32 83 65 q 87 99 87 131 l 87 650 q 87 674 76 682 q 65 690 32 690 q 28 690 18 689 q 8 689 2 689 l 2 728 l 179 740 z"},"%":{"x_min":0,"x_max":823,"ha":823,"o":"m 180 -17 l 544 628 q 517 612 490 604 q 462 596 436 596 q 417 596 403 598 q 389 600 379 604 q 381 597 382 588 q 383 580 383 570 q 383 526 365 478 q 347 429 315 389 q 283 348 246 327 q 208 306 167 306 q 109 306 75 343 q 40 379 40 439 q 40 480 58 523 q 75 565 109 605 q 146 648 184 670 q 223 693 259 693 q 296 693 322 682 q 347 670 363 646 q 376 635 395 629 q 414 623 437 623 q 481 623 526 646 q 572 669 596 705 l 640 705 l 229 -17 z m 750 250 q 750 290 730 315 q 710 340 680 340 q 656 340 634 321 q 611 303 581 256 q 546 202 527 155 q 508 109 508 80 q 508 51 527 33 q 547 15 579 15 q 609 15 638 34 q 667 53 693 91 q 721 130 735 171 q 750 212 750 250 z m 653 369 q 713 369 746 338 q 778 306 778 248 q 778 204 760 156 q 742 108 708 65 q 676 24 639 4 q 602 -17 560 -17 q 503 -17 469 19 q 434 56 434 115 q 434 156 452 199 q 469 241 503 281 q 539 324 578 346 q 617 369 653 369 z m 349 616 q 328 621 312 632 q 295 644 284 660 q 261 659 238 641 q 216 622 187 578 q 152 524 133 479 q 114 433 114 402 q 114 373 133 355 q 152 338 183 338 q 214 338 244 357 q 273 376 299 413 q 327 453 342 496 q 357 538 357 576 q 357 584 355 595 q 353 606 349 616 z"},"m":{"x_min":0,"x_max":882,"ha":882,"o":"m 35 0 l 35 42 l 78 44 q 99 45 105 52 q 111 59 111 81 l 111 385 q 111 409 100 417 q 89 425 55 425 q 51 425 41 424 q 31 424 25 424 l 25 463 l 196 475 l 196 379 q 227 428 264 452 q 301 475 348 475 q 400 475 433 451 q 467 427 482 380 q 514 430 551 452 q 588 475 637 475 q 707 475 744 433 q 782 392 782 315 l 782 81 q 782 59 789 52 q 795 45 815 44 l 858 42 l 858 0 l 619 0 l 619 42 l 659 44 q 679 45 686 52 q 693 60 693 81 l 693 319 q 693 364 671 389 q 648 413 607 413 q 547 413 517 372 q 488 330 488 246 l 488 81 q 488 59 494 52 q 501 45 521 44 l 564 42 l 564 0 l 325 0 l 325 42 l 366 44 q 386 45 392 52 q 399 60 399 81 l 399 304 q 399 362 380 388 q 360 413 317 413 q 260 413 230 371 q 201 329 201 246 l 201 81 q 201 58 208 52 q 214 45 234 44 l 272 42 l 272 0 z"},"#":{"x_min":0,"x_max":769,"ha":769,"o":"m 343 422 l 295 287 l 433 287 l 480 422 z m 371 712 l 447 712 l 368 490 l 503 490 l 582 712 l 658 712 l 579 490 l 726 490 l 702 422 l 555 422 l 508 287 l 664 287 l 640 219 l 484 219 l 405 -2 l 329 -2 l 408 219 l 272 219 l 193 -2 l 118 -2 l 196 219 l 43 219 l 68 287 l 220 287 l 268 422 l 104 422 l 129 490 l 292 490 z"},",":{"x_min":0,"x_max":273,"ha":273,"o":"m 79 -188 l 56 -159 q 104 -124 129 -88 q 154 -53 154 -21 q 154 -18 152 -9 q 152 -7 152 -6 q 141 -10 135 -11 q 130 -12 126 -12 q 97 -12 81 4 q 65 20 65 47 q 65 72 83 91 q 102 109 127 109 q 163 109 185 81 q 207 54 207 8 q 207 -48 174 -98 q 142 -148 79 -188 z"},"n":{"x_min":0,"x_max":611,"ha":611,"o":"m 36 0 l 36 42 l 79 44 q 100 45 106 52 q 112 59 112 81 l 112 385 q 112 409 101 417 q 90 425 57 425 q 53 425 43 424 q 33 424 27 424 l 27 463 l 198 475 l 198 379 q 232 429 271 452 q 311 475 362 475 q 434 475 474 433 q 513 392 513 315 l 513 81 q 513 59 520 52 q 526 45 546 44 l 589 42 l 589 0 l 347 0 l 347 42 l 390 44 q 410 45 417 52 q 423 60 423 81 l 423 319 q 423 364 399 389 q 375 413 331 413 q 268 413 235 371 q 203 329 203 246 l 203 81 q 203 58 209 52 q 216 45 236 44 l 278 42 l 278 0 z"},"h":{"x_min":0,"x_max":604,"ha":604,"o":"m 106 650 q 106 674 95 682 q 84 690 50 690 q 46 690 36 689 q 26 689 20 689 l 20 728 l 197 740 l 197 385 q 227 430 266 453 q 305 475 355 475 q 427 475 466 433 q 506 392 506 315 l 506 81 q 506 59 512 52 q 519 45 539 44 l 582 42 l 582 0 l 341 0 l 341 42 l 384 44 q 404 45 410 52 q 417 60 417 81 l 417 319 q 417 364 393 389 q 369 413 325 413 q 261 413 229 371 q 196 329 196 246 l 196 81 q 196 58 202 52 q 209 45 229 44 l 272 42 l 272 0 l 30 0 l 30 42 l 72 44 q 93 45 99 52 q 106 59 106 81 z"},"z":{"x_min":0,"x_max":485,"ha":485,"o":"m 393 182 l 427 182 l 416 0 l 39 0 l 39 40 l 315 422 l 204 422 q 155 422 128 392 q 102 361 96 298 l 59 298 l 69 463 l 422 463 l 422 426 l 149 44 l 249 44 q 326 44 354 72 q 382 100 393 182 z"},"B":{"x_min":0,"x_max":699,"ha":699,"o":"m 246 352 l 246 94 q 246 65 257 56 q 268 47 301 47 l 372 47 q 463 47 503 82 q 543 118 543 197 q 543 280 495 316 q 447 352 336 352 z m 34 0 l 34 47 l 86 47 q 118 47 128 57 q 139 67 139 95 l 139 627 q 139 655 128 665 q 118 675 86 675 l 34 675 l 34 722 l 412 722 q 518 722 573 677 q 628 632 628 546 q 628 481 586 439 q 543 397 460 379 q 563 366 614 320 q 665 274 665 194 q 665 102 596 51 q 526 0 400 0 z m 246 633 l 246 396 l 326 396 q 431 396 471 428 q 512 459 512 537 q 512 612 477 644 q 441 677 359 677 l 296 677 q 267 677 256 668 q 246 660 246 633 z"},"K":{"x_min":0,"x_max":772,"ha":772,"o":"m 35 0 l 35 47 l 87 47 q 118 47 128 57 q 139 67 139 95 l 139 627 q 139 655 128 665 q 118 675 87 675 l 35 675 l 35 722 l 351 722 l 351 675 l 299 675 q 269 675 258 665 q 247 655 247 627 l 247 326 l 519 610 q 529 620 534 629 q 538 638 538 648 q 538 663 525 669 q 512 675 468 675 l 447 675 l 447 722 l 748 722 l 748 675 q 745 675 739 675 q 733 676 731 676 q 692 676 657 659 q 623 643 589 609 l 435 450 l 679 92 q 692 73 703 64 q 714 55 727 51 q 734 49 748 48 q 762 47 778 47 l 790 47 l 790 0 l 457 0 l 457 47 l 503 47 q 539 47 550 52 q 561 56 561 69 q 561 78 553 91 l 552 92 l 361 372 l 247 254 l 247 95 q 247 67 258 57 q 269 47 299 47 l 351 47 l 351 0 z"},"R":{"x_min":0,"x_max":714,"ha":714,"o":"m 34 0 l 34 47 l 86 47 q 118 47 128 57 q 139 67 139 95 l 139 627 q 139 655 128 665 q 118 675 86 675 l 34 675 l 34 722 l 434 722 q 525 722 581 673 q 636 625 636 545 q 636 467 581 422 q 526 377 415 365 q 476 357 509 326 q 542 295 556 236 l 583 123 q 591 88 602 73 q 612 57 628 57 q 648 57 658 82 q 667 107 669 162 l 707 162 q 707 158 708 150 q 708 143 708 139 q 708 63 677 23 q 645 -18 587 -18 q 531 -18 504 14 q 477 45 468 123 l 457 223 q 450 291 414 321 q 379 350 302 350 l 248 350 l 248 95 q 248 67 259 57 q 269 47 300 47 l 362 47 l 362 0 z m 248 633 l 248 398 l 297 396 q 303 396 310 395 q 317 395 331 395 q 432 395 478 429 q 523 462 523 538 q 523 612 486 645 q 449 677 364 677 l 299 677 q 269 677 258 668 q 248 660 248 633 z"},"T":{"x_min":0,"x_max":704,"ha":704,"o":"m 406 95 q 406 67 416 57 q 427 47 458 47 l 522 47 l 522 0 l 180 0 l 180 47 l 244 47 q 275 47 286 57 q 297 67 297 95 l 297 631 q 297 663 287 674 q 278 684 231 684 q 164 684 128 632 q 93 579 75 445 l 37 445 l 51 722 l 651 722 l 666 445 l 628 445 q 607 589 571 636 q 535 684 452 684 q 425 684 415 673 q 406 663 406 631 z"},"P":{"x_min":0,"x_max":684,"ha":684,"o":"m 34 0 l 34 47 l 86 47 q 118 47 128 57 q 139 67 139 95 l 139 627 q 139 655 128 665 q 118 675 86 675 l 34 675 l 34 722 l 419 722 q 526 722 585 670 q 644 618 644 523 q 644 421 570 370 q 496 319 348 319 q 324 319 300 320 q 275 320 248 322 l 248 95 q 248 67 259 57 q 269 47 300 47 l 362 47 l 362 0 z m 248 628 l 248 368 q 261 367 275 366 q 290 365 306 365 q 433 365 480 400 q 528 436 528 523 q 528 604 490 641 q 453 677 367 677 l 300 677 q 270 677 259 667 q 248 658 248 628 z"},"|":{"x_min":0,"x_max":500,"ha":500,"o":"m 214 764 l 287 764 l 287 -236 l 214 -236 z"},"t":{"x_min":0,"x_max":389,"ha":389,"o":"m 96 419 l 16 419 l 16 459 q 78 464 112 517 q 146 569 150 666 l 192 666 l 192 463 l 336 463 l 336 419 l 187 419 l 187 130 q 187 82 200 63 q 214 45 246 45 q 287 45 307 78 q 327 111 329 181 l 366 181 l 366 168 q 366 78 326 30 q 286 -17 210 -17 q 148 -17 122 13 q 96 44 96 121 z"},"M":{"x_min":0,"x_max":925,"ha":925,"o":"m 181 658 l 181 171 q 181 95 206 70 q 230 44 300 43 l 300 0 l 10 0 l 10 43 q 80 44 105 69 q 130 94 130 171 l 130 627 q 130 655 119 665 q 108 675 77 675 l 18 675 l 18 722 l 268 722 l 462 170 l 650 722 l 894 722 l 894 675 l 841 675 q 810 675 800 665 q 789 655 789 627 l 789 95 q 789 67 800 57 q 810 47 841 47 l 894 47 l 894 0 l 570 0 l 570 47 l 630 47 q 662 47 672 57 q 683 67 683 95 l 683 658 l 459 0 l 420 0 z"},"g":{"x_min":0,"x_max":523,"ha":523,"o":"m 186 -10 q 150 -17 128 -39 q 107 -62 107 -93 q 107 -128 140 -146 q 172 -164 237 -164 q 329 -164 373 -142 q 417 -121 417 -76 q 417 -41 392 -25 q 368 -10 311 -10 z m 150 314 q 150 251 175 220 q 199 190 251 190 q 304 190 329 220 q 354 250 354 314 q 354 378 329 408 q 304 439 252 439 q 200 439 175 408 q 150 378 150 314 z m 146 181 q 103 201 82 235 q 61 269 61 318 q 61 389 114 434 q 167 479 252 479 q 292 479 323 470 q 354 460 380 441 l 394 453 q 421 476 442 485 q 463 495 484 495 q 513 495 529 479 q 544 463 544 433 q 544 414 531 402 q 519 390 499 390 q 469 390 458 417 q 446 444 445 444 q 442 444 439 442 q 436 440 428 433 l 407 417 q 426 397 434 373 q 443 349 443 318 q 443 242 385 198 q 326 154 224 154 q 158 154 136 144 q 114 134 114 109 q 114 89 130 80 q 146 72 186 72 l 195 72 l 276 74 l 300 74 l 328 74 q 412 74 449 45 q 487 16 487 -49 q 487 -126 421 -167 q 355 -207 230 -207 q 132 -207 78 -180 q 24 -152 24 -103 q 24 -69 51 -44 q 78 -19 125 -9 q 84 1 66 22 q 47 43 47 80 q 47 120 73 146 q 100 173 146 181 z"},"j":{"x_min":0,"x_max":275,"ha":275,"o":"m 149 722 q 173 722 190 705 q 208 687 208 663 q 208 639 191 622 q 174 605 149 605 q 125 605 108 622 q 91 640 91 663 q 91 687 108 705 q 126 722 149 722 z m 198 33 q 198 -84 152 -145 q 105 -205 16 -205 q -31 -205 -60 -181 q -90 -158 -90 -121 q -90 -95 -74 -78 q -58 -62 -32 -62 q -9 -62 5 -75 q 19 -88 19 -110 q 19 -128 7 -146 q 5 -150 5 -151 q 5 -157 12 -160 q 19 -164 30 -164 q 72 -164 91 -125 q 109 -86 109 8 l 109 385 q 109 408 98 416 q 88 424 50 424 l 12 424 l 12 462 l 198 475 z"},"i":{"x_min":0,"x_max":301,"ha":301,"o":"m 28 0 l 28 42 l 76 44 q 96 45 103 52 q 110 59 110 81 l 110 385 q 110 409 99 417 q 88 425 55 425 q 51 425 42 424 q 32 424 26 424 l 26 463 l 201 475 l 201 81 q 201 59 208 52 q 214 45 235 44 l 279 42 l 279 0 z m 153 723 q 177 723 195 706 q 213 688 213 664 q 213 639 195 622 q 178 605 153 605 q 129 605 112 623 q 94 640 94 664 q 94 688 112 706 q 129 723 153 723 z"},"y":{"x_min":0,"x_max":520,"ha":520,"o":"m 237 12 l 78 378 q 72 390 66 398 q 61 407 55 410 q 46 416 33 418 q 21 421 1 421 l 1 463 l 234 463 l 234 421 l 209 421 q 185 421 177 417 q 169 412 169 400 q 169 397 171 391 q 172 386 179 369 l 285 125 l 385 365 q 385 366 386 368 q 390 379 390 387 q 390 406 376 413 q 363 420 320 421 l 320 463 l 513 463 l 513 421 q 486 421 468 408 q 450 396 438 367 l 269 -26 q 227 -124 182 -166 q 136 -208 75 -208 q 32 -208 7 -188 q -17 -167 -17 -131 q -17 -106 0 -89 q 17 -72 43 -72 q 67 -72 81 -85 q 95 -99 95 -121 q 95 -131 91 -140 q 87 -149 87 -150 q 87 -155 92 -158 q 97 -161 105 -161 q 131 -161 166 -118 q 200 -76 230 -4 z"},"@":{"x_min":0,"x_max":986,"ha":986,"o":"m 579 162 q 549 111 512 86 q 475 61 429 61 q 366 61 329 106 q 291 151 291 226 q 291 279 315 332 q 339 384 384 427 q 417 458 455 475 q 493 492 531 492 q 575 492 602 469 q 629 445 639 399 l 664 484 l 741 484 l 657 185 q 657 184 655 179 q 648 152 648 137 q 648 112 659 99 q 671 85 692 85 q 708 85 731 95 q 754 104 775 120 q 833 164 863 232 q 892 299 892 387 q 892 452 866 507 q 841 562 790 605 q 746 643 686 663 q 625 683 555 683 q 467 683 391 653 q 315 623 257 565 q 195 504 164 425 q 133 345 133 250 q 133 161 161 97 q 188 33 248 -17 q 301 -62 372 -86 q 443 -110 522 -110 q 605 -110 682 -85 q 758 -60 828 -9 l 844 -29 q 772 -83 692 -110 q 611 -137 523 -137 q 431 -137 354 -115 q 278 -93 220 -49 q 146 6 108 86 q 69 166 69 262 q 69 361 111 448 q 153 535 234 601 q 299 655 378 683 q 456 710 545 710 q 714 710 816 618 q 918 526 918 374 q 918 296 889 229 q 861 161 808 113 q 779 87 747 74 q 714 60 681 60 q 634 60 608 86 q 583 112 579 162 z m 539 469 q 513 469 491 454 q 469 439 447 406 q 412 354 392 292 q 371 230 371 180 q 371 138 390 113 q 410 87 440 87 q 472 87 500 108 q 528 129 554 173 q 581 218 597 272 q 614 327 614 369 q 614 414 593 442 q 573 469 539 469 z"},".":{"x_min":0,"x_max":273,"ha":273,"o":"m 75 47 q 75 73 93 91 q 111 109 136 109 q 162 109 180 91 q 198 72 198 47 q 198 21 180 3 q 162 -15 136 -15 q 111 -15 93 3 q 75 22 75 47 z"},"p":{"x_min":0,"x_max":560,"ha":560,"o":"m 179 388 q 207 434 243 457 q 280 479 326 479 q 413 479 470 410 q 528 341 528 235 q 528 125 470 54 q 412 -17 324 -17 q 279 -17 246 0 q 213 17 185 55 l 185 -128 q 185 -149 191 -156 q 198 -163 219 -164 l 261 -166 l 261 -208 l 17 -208 l 17 -166 l 60 -164 q 81 -163 87 -156 q 93 -150 93 -128 l 93 378 q 93 403 83 412 q 73 420 42 420 q 38 420 30 419 q 21 419 17 419 l 17 462 l 179 474 z m 425 229 q 425 329 397 375 q 370 421 310 421 q 244 421 215 376 q 185 331 185 229 q 185 128 214 83 q 242 38 305 38 q 367 38 396 84 q 425 130 425 229 z"},"X":{"x_min":0,"x_max":703,"ha":703,"o":"m 275 47 l 275 0 l -3 0 l -3 47 l 5 47 q 46 47 82 74 q 117 101 167 172 l 294 353 l 98 636 q 81 661 68 668 q 56 675 34 675 l 0 675 l 0 722 l 301 722 l 301 675 l 246 675 q 234 675 228 671 q 221 667 221 659 q 221 653 224 647 q 226 641 231 634 l 359 445 l 463 594 q 472 607 477 617 q 481 628 481 637 q 481 656 464 665 q 447 675 414 675 l 400 675 l 400 722 l 668 722 l 668 675 q 620 675 589 658 q 558 641 523 591 l 390 401 l 598 98 q 618 68 638 58 q 659 47 693 47 l 709 47 l 709 0 l 386 0 l 386 47 l 433 47 q 458 47 470 52 q 481 57 481 67 q 481 74 478 82 q 474 90 462 107 l 323 308 l 219 162 q 202 138 195 122 q 188 106 188 91 q 188 69 207 58 q 227 47 265 47 z"},"*":{"x_min":0,"x_max":500,"ha":500,"o":"m 244 549 l 244 557 q 244 592 227 636 q 210 681 210 693 q 210 714 221 727 q 232 740 250 740 q 267 740 279 728 q 290 715 290 696 q 290 683 273 637 q 256 592 256 555 l 256 549 q 294 568 329 616 q 336 625 340 630 q 352 644 365 651 q 377 658 392 658 q 408 658 418 647 q 429 636 429 619 q 429 603 418 592 q 408 580 388 574 q 381 572 363 570 q 303 563 262 539 q 296 518 341 511 q 387 504 390 503 q 407 497 418 484 q 429 471 429 457 q 429 441 417 430 q 406 419 389 419 q 376 419 364 427 q 351 435 338 450 q 335 453 331 460 q 299 504 256 528 l 256 520 q 256 485 273 441 q 290 397 290 385 q 290 364 279 351 q 268 338 250 338 q 233 338 221 350 q 210 362 210 381 q 210 395 227 440 q 244 485 244 522 l 244 528 q 206 509 171 461 q 164 451 160 447 q 148 433 136 427 q 123 420 108 420 q 92 420 82 431 q 71 441 71 458 q 71 474 82 486 q 92 497 112 503 q 119 505 137 507 q 197 515 238 539 q 203 561 158 568 q 112 575 111 575 q 92 581 81 593 q 71 604 71 620 q 71 637 82 648 q 94 659 111 659 q 124 659 136 651 q 149 644 162 628 q 164 625 170 617 q 202 573 244 549 z"},"Y":{"x_min":0,"x_max":669,"ha":669,"o":"m 395 95 q 395 67 406 57 q 417 47 447 47 l 509 47 l 509 0 l 170 0 l 170 47 l 233 47 q 264 47 275 57 q 286 68 286 95 l 286 299 l 84 620 q 61 657 45 666 q 30 675 2 675 l -17 675 l -17 722 l 291 722 l 291 675 l 250 675 q 223 675 210 669 q 198 664 198 652 q 198 646 201 640 q 203 633 213 617 l 372 366 l 503 594 q 509 605 512 614 q 515 624 515 633 q 515 654 498 664 q 480 675 446 675 l 418 675 l 418 722 l 682 722 l 682 675 l 663 675 q 634 675 617 665 q 601 655 580 620 l 395 304 z"},"c":{"x_min":0,"x_max":448,"ha":448,"o":"m 437 129 q 409 55 364 19 q 318 -16 249 -16 q 153 -16 93 50 q 32 116 32 223 q 32 338 96 408 q 160 479 264 479 q 334 479 379 446 q 425 413 425 364 q 425 331 406 312 q 388 292 358 292 q 332 292 315 307 q 299 323 299 347 q 299 369 314 385 q 330 402 330 406 q 330 420 311 430 q 292 439 260 439 q 198 439 166 389 q 135 339 135 239 q 135 141 169 93 q 204 45 273 45 q 318 45 349 70 q 381 95 401 147 z"},"!":{"x_min":0,"x_max":296,"ha":296,"o":"m 127 193 l 125 287 q 123 395 104 515 q 84 635 84 652 q 84 693 100 716 q 117 738 147 738 q 178 738 194 716 q 210 694 210 651 q 210 634 190 514 q 171 395 169 287 l 167 193 z m 147 109 q 172 109 190 91 q 208 73 208 47 q 208 21 190 3 q 173 -15 147 -15 q 122 -15 103 3 q 85 22 85 47 q 85 72 103 91 q 122 109 147 109 z"},"/":{"x_min":0,"x_max":278,"ha":278,"o":"m 242 740 l 287 740 l 36 -93 l -10 -93 z"},"[":{"x_min":0,"x_max":356,"ha":356,"o":"m 322 722 l 322 692 l 167 692 l 167 -81 l 322 -81 l 322 -111 l 94 -111 l 94 722 z"},"6":{"x_min":0,"x_max":546,"ha":546,"o":"m 149 338 q 183 385 225 409 q 268 433 318 433 q 405 433 457 377 q 509 320 509 225 q 509 118 445 50 q 381 -17 281 -17 q 170 -17 106 72 q 41 161 41 314 q 41 488 121 597 q 201 705 328 705 q 398 705 441 671 q 485 637 485 583 q 485 554 468 535 q 451 516 424 516 q 400 516 383 533 q 366 550 366 573 q 366 590 377 609 q 387 628 387 631 q 387 643 370 652 q 352 660 325 660 q 241 660 195 577 q 150 494 149 338 z m 156 209 q 156 124 188 76 q 221 28 279 28 q 338 28 372 75 q 405 122 405 205 q 405 285 374 329 q 344 372 287 372 q 228 372 192 327 q 156 283 156 209 z"},"r":{"x_min":0,"x_max":444,"ha":444,"o":"m 199 81 q 199 59 206 52 q 212 45 232 44 l 293 42 l 293 0 l 30 0 l 30 42 l 77 44 q 97 45 104 52 q 110 59 110 81 l 110 385 q 110 409 99 416 q 89 424 50 424 l 20 424 l 20 463 l 194 475 l 194 334 q 217 405 254 441 q 292 478 340 478 q 380 478 406 454 q 431 430 431 393 q 431 366 415 348 q 398 331 373 331 q 346 331 330 346 q 314 362 314 388 q 314 402 319 413 q 325 424 334 431 l 328 431 q 276 431 238 361 q 199 291 199 188 z"},"2":{"x_min":0,"x_max":546,"ha":546,"o":"m 458 219 l 498 219 l 480 0 l 34 0 l 34 31 q 88 104 244 277 l 293 331 q 343 387 364 433 q 385 479 385 531 q 385 593 352 626 q 319 658 255 658 q 197 658 155 628 q 113 598 113 562 q 113 544 142 533 q 144 532 145 532 q 171 522 182 510 q 193 497 193 477 q 193 450 175 432 q 157 413 131 413 q 96 413 74 441 q 52 469 52 516 q 52 597 114 650 q 176 703 273 703 q 377 703 435 652 q 492 601 492 509 q 492 455 469 411 q 445 367 379 308 q 375 304 301 244 q 227 185 169 125 l 138 94 l 365 94 q 413 94 426 107 q 438 120 453 194 z"},"{":{"x_min":0,"x_max":500,"ha":500,"o":"m 414 740 l 414 714 q 348 713 323 688 q 299 662 299 585 l 299 516 q 299 405 270 365 q 241 326 164 310 q 242 294 270 255 q 299 215 299 104 l 299 35 q 299 -42 323 -67 q 347 -92 414 -93 l 414 -119 l 409 -119 q 302 -119 262 -83 q 222 -47 222 50 l 222 151 q 222 229 193 259 q 165 289 87 295 l 87 326 q 166 333 194 362 q 222 392 222 470 l 222 571 q 222 668 262 704 q 302 740 409 740 z"},"9":{"x_min":0,"x_max":546,"ha":546,"o":"m 399 349 q 365 302 323 278 q 281 254 231 254 q 143 254 91 310 q 39 367 39 462 q 39 569 103 637 q 167 704 267 704 q 378 704 443 615 q 508 525 508 372 q 508 198 428 90 q 348 -18 220 -18 q 150 -18 106 16 q 63 50 63 104 q 63 133 80 152 q 97 170 124 170 q 148 170 166 153 q 183 136 183 113 q 183 96 172 77 q 161 59 161 56 q 161 43 179 35 q 196 26 223 26 q 307 26 353 110 q 398 193 399 349 z m 392 477 q 392 562 359 610 q 327 658 269 658 q 209 658 176 611 q 143 564 143 481 q 143 401 174 358 q 204 315 261 315 q 320 315 356 359 q 392 403 392 477 z"}," ":{"x_min":0,"x_max":273,"ha":273,"o":""},"I":{"x_min":0,"x_max":398,"ha":398,"o":"m 36 0 l 36 47 l 90 47 q 122 47 133 57 q 144 67 144 95 l 144 627 q 144 655 133 665 q 122 675 90 675 l 36 675 l 36 722 l 362 722 l 362 675 l 308 675 q 277 675 266 665 q 255 655 255 627 l 255 95 q 255 67 266 57 q 277 47 308 47 l 362 47 l 362 0 z"},"H":{"x_min":0,"x_max":833,"ha":833,"o":"m 34 0 l 34 47 l 86 47 q 117 47 128 57 q 139 68 139 95 l 139 627 q 139 654 128 665 q 117 675 86 675 l 34 675 l 34 722 l 353 722 l 353 675 l 300 675 q 270 675 259 665 q 248 655 248 627 l 248 404 l 586 404 l 586 627 q 586 654 575 665 q 563 675 533 675 l 480 675 l 480 722 l 800 722 l 800 675 l 747 675 q 716 675 705 665 q 694 654 694 627 l 694 95 q 694 68 705 57 q 716 47 747 47 l 800 47 l 800 0 l 480 0 l 480 47 l 533 47 q 563 47 575 57 q 586 68 586 95 l 586 353 l 248 353 l 248 95 q 248 67 259 57 q 270 47 300 47 l 353 47 l 353 0 z"},"4":{"x_min":0,"x_max":546,"ha":546,"o":"m 304 234 l 304 537 l 84 234 z m 202 0 l 202 46 l 245 46 q 282 46 293 54 q 304 62 304 87 l 304 177 l 27 177 l 27 236 l 361 705 l 398 705 l 398 234 l 517 234 l 517 178 l 398 178 l 398 87 q 398 62 409 54 q 420 46 457 46 l 500 46 l 500 0 z"},"~":{"x_min":0,"x_max":833,"ha":833,"o":"m 747 376 l 747 300 q 696 265 650 248 q 604 231 557 231 q 512 231 432 259 q 421 263 416 265 l 408 268 q 322 297 275 297 q 234 297 189 279 q 145 261 87 220 l 87 296 q 139 331 186 349 q 232 366 276 366 q 306 366 338 360 q 370 353 418 336 q 426 333 441 328 q 519 300 558 300 q 601 300 646 318 q 690 336 747 376 z"},"D":{"x_min":0,"x_max":765,"ha":765,"o":"m 248 627 l 248 95 q 248 67 258 58 q 269 48 300 48 l 381 48 q 497 48 546 120 q 595 192 595 361 q 595 529 542 602 q 488 675 366 675 l 300 675 q 269 675 259 665 q 248 655 248 627 z m 34 0 l 34 48 l 86 48 q 118 48 129 58 q 139 67 139 95 l 139 627 q 139 655 128 665 q 118 675 86 675 l 34 675 l 34 722 l 393 722 q 551 722 636 629 q 721 535 721 361 q 721 194 639 97 q 558 0 416 0 z"},"^":{"x_min":0,"x_max":1000,"ha":1000,"o":"m 452 714 l 547 714 l 797 438 l 749 438 l 499 643 l 248 438 l 201 438 z"},"0":{"x_min":0,"x_max":546,"ha":546,"o":"m 150 344 q 150 174 178 102 q 207 29 273 29 q 338 29 367 102 q 396 176 396 344 q 396 515 367 588 q 338 661 273 661 q 208 661 179 588 q 150 515 150 344 z m 42 344 q 42 507 106 606 q 170 705 273 705 q 378 705 441 607 q 505 509 505 344 q 505 181 440 82 q 376 -17 273 -17 q 169 -17 106 82 q 42 181 42 344 z"},"F":{"x_min":0,"x_max":660,"ha":660,"o":"m 34 0 l 34 47 l 86 47 q 118 47 128 57 q 139 67 139 95 l 139 627 q 139 655 128 665 q 118 675 86 675 l 34 675 l 34 722 l 619 722 l 632 467 l 589 467 q 580 529 562 574 q 543 619 519 640 q 495 660 453 668 q 410 677 333 677 q 275 677 262 667 q 248 657 248 627 l 248 398 l 262 398 q 340 398 373 428 q 406 459 413 536 l 455 536 l 455 218 l 413 218 q 406 295 374 325 q 341 355 262 355 l 248 355 l 248 95 q 248 67 259 57 q 269 47 300 47 l 366 47 l 366 0 z"},"`":{"x_min":0,"x_max":500,"ha":500,"o":"m 336 533 l 300 533 l 153 623 q 129 638 120 649 q 112 659 112 672 q 112 688 123 699 q 134 710 149 710 q 161 710 174 702 q 188 694 201 680 z"},"k":{"x_min":0,"x_max":581,"ha":581,"o":"m 27 0 l 27 42 l 72 44 q 92 45 99 52 q 106 59 106 81 l 106 650 q 106 674 95 682 q 84 690 51 690 q 47 690 38 689 q 28 689 22 689 l 22 728 l 197 740 l 197 245 l 351 386 q 356 391 359 397 q 363 404 363 408 q 363 417 351 421 q 340 425 312 425 l 280 425 l 280 463 l 536 463 l 536 425 l 530 425 q 492 425 459 410 q 426 395 375 347 l 324 300 l 481 91 q 500 66 522 55 q 545 43 580 42 l 580 0 l 322 0 l 322 42 l 352 44 q 374 45 380 48 q 387 51 387 59 q 387 66 379 78 q 378 79 378 79 l 258 241 l 197 187 l 197 81 q 197 59 203 52 q 210 45 231 44 l 275 42 l 275 0 z"},"u":{"x_min":0,"x_max":602,"ha":602,"o":"m 578 0 l 407 -12 l 407 80 q 373 30 333 6 q 294 -17 243 -17 q 171 -17 131 25 q 92 66 92 143 l 92 385 q 92 409 81 417 q 70 425 37 425 q 33 425 23 424 q 13 424 7 424 l 7 463 l 182 475 l 182 139 q 182 94 206 69 q 230 45 274 45 q 336 45 369 86 q 402 126 402 204 l 402 385 q 402 409 391 417 q 380 425 346 425 q 342 425 332 424 q 322 424 316 424 l 316 463 l 493 475 l 493 78 q 493 54 504 46 q 515 38 548 38 q 552 38 562 39 q 572 39 578 39 z"},"]":{"x_min":0,"x_max":356,"ha":356,"o":"m 34 722 l 262 722 l 262 -111 l 34 -111 l 34 -81 l 189 -81 l 189 692 l 34 692 z"},"U":{"x_min":0,"x_max":809,"ha":809,"o":"m 22 722 l 346 722 l 346 675 l 294 675 q 263 675 252 665 q 241 655 241 627 l 241 223 q 241 128 290 83 q 338 38 441 38 q 508 38 553 62 q 598 85 619 131 q 627 148 630 178 q 634 208 634 270 l 634 585 q 634 637 618 656 q 602 675 562 675 l 518 675 l 518 722 l 793 722 l 793 675 l 756 675 q 715 675 699 655 q 683 636 683 585 l 683 266 q 683 113 619 48 q 554 -17 406 -17 q 270 -17 201 43 q 133 104 133 224 l 133 627 q 133 655 122 665 q 111 675 80 675 l 22 675 z"},"o":{"x_min":0,"x_max":515,"ha":515,"o":"m 33 231 q 33 342 96 410 q 158 479 258 479 q 358 479 420 410 q 482 342 482 231 q 482 121 420 52 q 357 -16 258 -16 q 158 -16 96 52 q 33 121 33 231 z m 136 231 q 136 124 165 74 q 194 25 257 25 q 322 25 351 74 q 380 123 380 231 q 380 339 351 389 q 322 438 258 438 q 194 438 165 389 q 136 339 136 231 z"},"N":{"x_min":0,"x_max":817,"ha":817,"o":"m 31 0 l 31 43 q 94 48 116 73 q 138 97 138 171 l 138 643 q 128 661 108 668 q 89 676 48 676 l 31 676 l 31 722 l 226 722 l 624 177 l 624 551 q 624 629 600 654 q 575 678 505 679 l 505 722 l 784 722 l 784 679 q 721 676 698 651 q 675 625 675 551 l 675 -18 l 635 -18 l 190 589 l 190 171 q 190 95 215 69 q 241 43 309 43 l 309 0 z"},"+":{"x_min":0,"x_max":833,"ha":833,"o":"m 382 596 l 451 596 l 451 332 l 709 332 l 709 264 l 451 264 l 451 0 l 382 0 l 382 264 l 124 264 l 124 332 l 382 332 z"},"G":{"x_min":0,"x_max":778,"ha":778,"o":"m 447 282 l 447 330 l 764 330 l 764 282 l 711 282 q 680 282 669 272 q 659 262 659 234 l 659 -18 l 622 -18 l 584 76 q 554 29 504 6 q 455 -18 387 -18 q 235 -18 140 87 q 45 191 45 361 q 45 530 137 636 q 230 742 376 742 q 433 742 482 724 q 531 707 568 672 l 605 735 l 644 735 l 655 450 l 615 450 q 588 575 533 634 q 478 694 388 694 q 280 694 227 612 q 175 530 175 361 q 175 190 228 109 q 281 28 393 28 q 470 28 513 68 q 555 107 555 180 l 555 230 q 555 261 544 272 q 534 282 502 282 z"},"q":{"x_min":0,"x_max":559,"ha":559,"o":"m 141 244 q 141 135 169 86 q 197 38 260 38 q 321 38 351 83 q 380 129 380 225 q 380 338 351 385 q 322 433 256 433 q 197 433 169 387 q 141 341 141 244 z m 454 474 l 488 474 q 480 439 476 403 q 472 368 472 331 l 472 -128 q 472 -149 479 -156 q 485 -163 505 -164 l 548 -166 l 548 -208 l 303 -208 l 303 -166 l 346 -164 q 367 -163 373 -156 q 379 -150 379 -128 l 379 55 q 352 18 319 0 q 287 -17 245 -17 q 155 -17 97 53 q 38 123 38 231 q 38 343 96 411 q 154 479 249 479 q 294 479 333 458 q 372 438 408 395 z"},"d":{"x_min":0,"x_max":559,"ha":559,"o":"m 381 74 q 354 30 317 8 q 280 -14 234 -14 q 146 -14 90 54 q 33 123 33 231 q 33 338 91 409 q 149 479 236 479 q 280 479 314 462 q 347 444 375 407 l 375 650 q 375 673 364 681 q 353 689 313 689 l 278 689 l 278 728 l 467 740 l 467 85 q 467 60 477 51 q 487 43 520 43 l 543 43 l 543 0 l 381 -11 z m 136 233 q 136 132 165 86 q 193 41 256 41 q 318 41 346 87 q 375 133 375 233 q 375 333 346 379 q 318 424 255 424 q 193 424 165 378 q 136 332 136 233 z"},"1":{"x_min":0,"x_max":546,"ha":546,"o":"m 337 96 q 337 67 350 57 q 364 47 406 47 l 480 47 l 480 0 l 105 0 l 105 47 l 172 47 q 214 47 228 57 q 241 67 241 96 l 241 556 q 241 575 232 582 q 223 589 194 589 l 98 589 l 98 632 q 170 636 223 654 q 277 672 310 705 l 337 705 z"},"5":{"x_min":0,"x_max":546,"ha":546,"o":"m 119 708 l 143 708 q 167 694 214 687 q 260 679 324 679 q 371 679 407 688 q 443 697 466 714 l 476 707 q 461 646 412 614 q 362 582 284 582 q 258 582 228 586 q 198 589 163 597 q 156 548 152 507 q 147 466 144 426 q 179 441 211 449 q 243 456 277 456 q 375 456 436 394 q 498 332 498 232 q 498 117 429 50 q 360 -17 243 -17 q 157 -17 99 30 q 42 77 42 147 q 42 188 62 212 q 83 237 116 237 q 143 237 159 220 q 175 203 175 175 q 175 161 170 148 q 166 136 156 126 q 149 119 134 109 q 119 100 119 91 q 119 68 155 48 q 191 27 240 27 q 312 27 352 81 q 392 135 392 233 q 392 315 353 362 q 314 409 247 409 q 217 409 191 400 q 165 391 142 373 q 139 340 129 325 q 119 309 100 309 q 84 309 75 318 q 67 327 67 344 q 67 354 73 366 q 80 378 92 390 q 102 428 109 512 q 116 595 119 708 z"}}}
